<svg width="25" height="24" viewBox="0 0 25 24" fill="none" xmlns="http://www.w3.org/2000/svg">
<path d="M12.7 2.25C10.7716 2.25 8.88653 2.82183 7.28315 3.89317C5.67977 4.96451 4.43008 6.48726 3.69213 8.26884C2.95418 10.0504 2.76109 12.0108 3.1373 13.9021C3.5135 15.7934 4.4421 17.5307 5.80566 18.8943C7.16923 20.2579 8.90651 21.1865 10.7978 21.5627C12.6891 21.9389 14.6495 21.7458 16.4311 21.0078C18.2127 20.2699 19.7354 19.0202 20.8068 17.4168C21.8781 15.8134 22.45 13.9284 22.45 12C22.4472 9.41498 21.4191 6.93661 19.5912 5.10872C17.7633 3.28084 15.285 2.25273 12.7 2.25ZM12.7 20.25C11.0683 20.25 9.47321 19.7661 8.1165 18.8596C6.7598 17.9531 5.70237 16.6646 5.07795 15.1571C4.45353 13.6496 4.29015 11.9908 4.60848 10.3905C4.9268 8.79016 5.71254 7.32015 6.86632 6.16637C8.02011 5.01259 9.49012 4.22685 11.0905 3.90852C12.6908 3.59019 14.3496 3.75357 15.8571 4.37799C17.3646 5.00242 18.6531 6.05984 19.5596 7.41655C20.4661 8.77325 20.95 10.3683 20.95 12C20.9475 14.1873 20.0775 16.2843 18.5308 17.8309C16.9842 19.3775 14.8872 20.2475 12.7 20.25ZM16.8643 6.82875L10.8643 9.82875C10.7193 9.90162 10.6016 10.0193 10.5287 10.1644L7.52871 16.1644C7.47147 16.2788 7.44443 16.4059 7.45017 16.5337C7.45592 16.6614 7.49424 16.7856 7.56151 16.8944C7.62878 17.0032 7.72275 17.093 7.83449 17.1552C7.94624 17.2175 8.07205 17.2501 8.19996 17.25C8.31639 17.2498 8.43122 17.2229 8.53558 17.1713L14.5356 14.1713C14.6806 14.0984 14.7983 13.9807 14.8712 13.8356L17.8712 7.83563C17.942 7.69475 17.9666 7.53515 17.9415 7.3795C17.9164 7.22385 17.8428 7.08007 17.7314 6.96859C17.6199 6.85711 17.4761 6.7836 17.3205 6.75849C17.1648 6.73339 17.0052 6.75797 16.8643 6.82875ZM13.6375 12.9375L9.87714 14.8228L11.7625 11.0625L15.5265 9.18094L13.6375 12.9375Z" fill="black"/>
</svg>
