<svg width="25" height="24" viewBox="0 0 25 24" fill="none" xmlns="http://www.w3.org/2000/svg">
<path d="M3.27 10C2.84 10 2.5 9.66 2.5 9.23V6.92C2.5 4.21 4.71 2 7.42 2H9.73C10.16 2 10.5 2.34 10.5 2.77C10.5 3.2 10.16 3.54 9.73 3.54H7.42C5.55 3.54 4.04 5.06 4.04 6.92V9.23C4.04 9.66 3.69 10 3.27 10Z" fill="white"/>
<path d="M21.73 10C21.31 10 20.96 9.66 20.96 9.23V6.92C20.96 5.05 19.44 3.54 17.58 3.54H15.27C14.84 3.54 14.5 3.19 14.5 2.77C14.5 2.35 14.84 2 15.27 2H17.58C20.29 2 22.5 4.21 22.5 6.92V9.23C22.5 9.66 22.16 10 21.73 10Z" fill="white"/>
<path d="M17.58 21.9999H16.19C15.77 21.9999 15.42 21.6599 15.42 21.2299C15.42 20.8099 15.76 20.4599 16.19 20.4599H17.58C19.45 20.4599 20.96 18.9399 20.96 17.0799V15.6999C20.96 15.2799 21.3 14.9299 21.73 14.9299C22.15 14.9299 22.5 15.2699 22.5 15.6999V17.0799C22.5 19.7899 20.29 21.9999 17.58 21.9999Z" fill="white"/>
<path d="M9.73 22H7.42C4.71 22 2.5 19.79 2.5 17.08V14.77C2.5 14.34 2.84 14 3.27 14C3.7 14 4.04 14.34 4.04 14.77V17.08C4.04 18.95 5.56 20.46 7.42 20.46H9.73C10.15 20.46 10.5 20.8 10.5 21.23C10.5 21.66 10.16 22 9.73 22Z" fill="white"/>
<path d="M18.96 11.23H17.6H7.40002H6.04002C5.61002 11.23 5.27002 11.58 5.27002 12C5.27002 12.42 5.61002 12.77 6.04002 12.77H7.40002H17.6H18.96C19.39 12.77 19.73 12.42 19.73 12C19.73 11.58 19.39 11.23 18.96 11.23Z" fill="white"/>
<path d="M7.40002 13.94V14.27C7.40002 15.93 8.74002 17.27 10.4 17.27H14.6C16.26 17.27 17.6 15.93 17.6 14.27V13.94C17.6 13.82 17.51 13.73 17.39 13.73H7.61002C7.49002 13.73 7.40002 13.82 7.40002 13.94Z" fill="white"/>
<path d="M7.40002 10.06V9.72998C7.40002 8.06998 8.74002 6.72998 10.4 6.72998H14.6C16.26 6.72998 17.6 8.06998 17.6 9.72998V10.06C17.6 10.18 17.51 10.27 17.39 10.27H7.61002C7.49002 10.27 7.40002 10.18 7.40002 10.06Z" fill="white"/>
</svg>
