<svg width="25" height="24" viewBox="0 0 25 24" fill="none" xmlns="http://www.w3.org/2000/svg">
<path fill-rule="evenodd" clip-rule="evenodd" d="M11.486 1.21065C11.8471 0.929784 12.3528 0.929784 12.7139 1.21065L21.7139 8.21065C21.9575 8.4001 22.1 8.69141 22.1 9V20C22.1 20.7957 21.7839 21.5587 21.2213 22.1213C20.6587 22.6839 19.8956 23 19.1 23H5.09998C4.30433 23 3.54126 22.6839 2.97866 22.1213C2.41605 21.5587 2.09998 20.7957 2.09998 20V9C2.09998 8.69141 2.24245 8.4001 2.48603 8.21065L11.486 1.21065ZM4.09998 9.48908V20C4.09998 20.2652 4.20533 20.5196 4.39287 20.7071C4.58041 20.8946 4.83476 21 5.09998 21H19.1C19.3652 21 19.6195 20.8946 19.8071 20.7071C19.9946 20.5196 20.1 20.2652 20.1 20V9.48908L12.1 3.26686L4.09998 9.48908Z" fill="black"/>
<path fill-rule="evenodd" clip-rule="evenodd" d="M8.09998 12C8.09998 11.4477 8.54769 11 9.09998 11H15.1C15.6523 11 16.1 11.4477 16.1 12V22C16.1 22.5523 15.6523 23 15.1 23C14.5477 23 14.1 22.5523 14.1 22V13H10.1V22C10.1 22.5523 9.65226 23 9.09998 23C8.54769 23 8.09998 22.5523 8.09998 22V12Z" fill="black"/>
</svg>
