<svg width="25" height="24" viewBox="0 0 25 24" fill="none" xmlns="http://www.w3.org/2000/svg">
<path fill-rule="evenodd" clip-rule="evenodd" d="M5.36449 15.4645C6.30217 14.5268 7.57394 14 8.90002 14H16.9C18.2261 14 19.4979 14.5268 20.4356 15.4645C21.3732 16.4021 21.9 17.6739 21.9 19V21C21.9 21.5523 21.4523 22 20.9 22C20.3477 22 19.9 21.5523 19.9 21V19C19.9 18.2044 19.584 17.4413 19.0213 16.8787C18.4587 16.3161 17.6957 16 16.9 16H8.90002C8.10438 16 7.34131 16.3161 6.7787 16.8787C6.21609 17.4413 5.90002 18.2044 5.90002 19V21C5.90002 21.5523 5.45231 22 4.90002 22C4.34774 22 3.90002 21.5523 3.90002 21V19C3.90002 17.6739 4.42681 16.4021 5.36449 15.4645Z" fill="black"/>
<path fill-rule="evenodd" clip-rule="evenodd" d="M12.9 4C11.2432 4 9.90002 5.34315 9.90002 7C9.90002 8.65685 11.2432 10 12.9 10C14.5569 10 15.9 8.65685 15.9 7C15.9 5.34315 14.5569 4 12.9 4ZM7.90002 7C7.90002 4.23858 10.1386 2 12.9 2C15.6614 2 17.9 4.23858 17.9 7C17.9 9.76142 15.6614 12 12.9 12C10.1386 12 7.90002 9.76142 7.90002 7Z" fill="black"/>
</svg>
