<svg width="25" height="24" viewBox="0 0 25 24" fill="none" xmlns="http://www.w3.org/2000/svg">
<path d="M20.5499 3.75H4.04993C3.6521 3.75 3.27057 3.90804 2.98927 4.18934C2.70796 4.47064 2.54993 4.85218 2.54993 5.25V18.75C2.54993 19.1478 2.70796 19.5294 2.98927 19.8107C3.27057 20.092 3.6521 20.25 4.04993 20.25H20.5499C20.9478 20.25 21.3293 20.092 21.6106 19.8107C21.8919 19.5294 22.0499 19.1478 22.0499 18.75V5.25C22.0499 4.85218 21.8919 4.47064 21.6106 4.18934C21.3293 3.90804 20.9478 3.75 20.5499 3.75ZM20.5499 18.75H4.04993V5.25H20.5499V18.75ZM16.7999 8.25C16.7999 9.44347 16.3258 10.5881 15.4819 11.432C14.638 12.2759 13.4934 12.75 12.2999 12.75C11.1065 12.75 9.96186 12.2759 9.11795 11.432C8.27403 10.5881 7.79993 9.44347 7.79993 8.25C7.79993 8.05109 7.87894 7.86032 8.0196 7.71967C8.16025 7.57902 8.35101 7.5 8.54993 7.5C8.74884 7.5 8.9396 7.57902 9.08026 7.71967C9.22091 7.86032 9.29993 8.05109 9.29993 8.25C9.29993 9.04565 9.616 9.80871 10.1786 10.3713C10.7412 10.9339 11.5043 11.25 12.2999 11.25C13.0956 11.25 13.8586 10.9339 14.4212 10.3713C14.9839 9.80871 15.2999 9.04565 15.2999 8.25C15.2999 8.05109 15.3789 7.86032 15.5196 7.71967C15.6602 7.57902 15.851 7.5 16.0499 7.5C16.2488 7.5 16.4396 7.57902 16.5803 7.71967C16.7209 7.86032 16.7999 8.05109 16.7999 8.25Z" fill="black"/>
</svg>
